<?xml version="1.0" encoding="UTF-8" standalone="no"?>
<!-- Created with Inkscape (http://www.inkscape.org/) -->

<svg
   xmlns:osb="http://www.openswatchbook.org/uri/2009/osb"
   xmlns:dc="http://purl.org/dc/elements/1.1/"
   xmlns:cc="http://creativecommons.org/ns#"
   xmlns:rdf="http://www.w3.org/1999/02/22-rdf-syntax-ns#"
   xmlns:svg="http://www.w3.org/2000/svg"
   xmlns="http://www.w3.org/2000/svg"
   xmlns:sodipodi="http://sodipodi.sourceforge.net/DTD/sodipodi-0.dtd"
   xmlns:inkscape="http://www.inkscape.org/namespaces/inkscape"
   width="373.60004"
   height="158.60002"
   id="svg2"
   version="1.1"
   inkscape:version="0.48.2 r9819"
   sodipodi:docname="hype_logos.svg">
  <defs
     id="defs4">
    <linearGradient
       id="linearGradient4124"
       osb:paint="solid">
      <stop
         style="stop-color:#25f4fb;stop-opacity:1;"
         offset="0"
         id="stop4126" />
    </linearGradient>
    <linearGradient
       id="linearGradient3921"
       osb:paint="solid">
      <stop
         style="stop-color:#13dfe6;stop-opacity:1;"
         offset="0"
         id="stop3923" />
    </linearGradient>
    <filter
       inkscape:collect="always"
       id="filter4070"
       color-interpolation-filters="sRGB">
      <feGaussianBlur
         inkscape:collect="always"
         stdDeviation="1.4630764"
         id="feGaussianBlur4072" />
    </filter>
    <filter
       inkscape:collect="always"
       id="filter4423"
       color-interpolation-filters="sRGB">
      <feGaussianBlur
         inkscape:collect="always"
         stdDeviation="1.2878586"
         id="feGaussianBlur4425" />
    </filter>
  </defs>
  <sodipodi:namedview
     id="base"
     pagecolor="#ffffff"
     bordercolor="#666666"
     borderopacity="1.0"
     inkscape:pageopacity="0.0"
     inkscape:pageshadow="2"
     inkscape:zoom="1.4268093"
     inkscape:cx="357.85647"
     inkscape:cy="59.135509"
     inkscape:document-units="px"
     inkscape:current-layer="layer1"
     showgrid="false"
     inkscape:snap-global="false"
     inkscape:snap-to-guides="false"
     inkscape:snap-grids="true"
     inkscape:snap-bbox="true"
     inkscape:bbox-nodes="false"
     showguides="false"
     inkscape:guide-bbox="true"
     inkscape:window-width="1366"
     inkscape:window-height="720"
     inkscape:window-x="4"
     inkscape:window-y="0"
     inkscape:window-maximized="0"
     inkscape:snap-nodes="true"
     fit-margin-top="0"
     fit-margin-left="0"
     fit-margin-right="0"
     fit-margin-bottom="0"
     showborder="true"
     borderlayer="true"
     objecttolerance="10"
     guidetolerance="10">
    <inkscape:grid
       type="xygrid"
       id="grid3010"
       empspacing="5"
       visible="true"
       enabled="true"
       snapvisiblegridlinesonly="true" />
    <sodipodi:guide
       orientation="1,0"
       position="144.33012,163.14762"
       id="guide3012" />
  </sodipodi:namedview>
  <metadata
     id="metadata7">
    <rdf:RDF>
      <cc:Work
         rdf:about="">
        <dc:format>image/svg+xml</dc:format>
        <dc:type
           rdf:resource="http://purl.org/dc/dcmitype/StillImage" />
        <dc:title></dc:title>
      </cc:Work>
    </rdf:RDF>
  </metadata>
  <g
     inkscape:label="Layer 1"
     inkscape:groupmode="layer"
     id="layer1"
     transform="translate(-5.125809,-425.70217)">
    <g
       id="g3261">
      <g
         transform="matrix(0.99415752,0,0,0.99415752,-140.60735,-27.405143)"
         id="flowRoot2993-4-4"
         style="font-size:144px;font-style:normal;font-variant:normal;font-weight:normal;font-stretch:normal;text-align:start;line-height:94.99999881%;letter-spacing:-2.69000006px;word-spacing:0px;writing-mode:lr-tb;text-anchor:start;fill:#000000;fill-opacity:1;stroke:#25f4fb;stroke-width:3.62115645;stroke-miterlimit:4;stroke-opacity:1;stroke-dasharray:none;font-family:Russo One;-inkscape-font-specification:Russo One">
        <path
           sodipodi:nodetypes="cccsccccccccscc"
           inkscape:connector-curvature="0"
           id="path3004-5-0"
           d="m 249.40019,577.93352 c -4.20992,0.1756 -6.90554,-0.0938 -15,0 l 0,-25 10,0 c 3.636,0 5,-1 6,-3 1,-2 0.53597,-4.35199 -1,-8 l -20,-49 30,0 10,30 15,-30 30,0 -25,57 c -1.39203,3.79199 -3,8 -5,11 -2,3 -10,10 -15,12 -5,3 -15,5 -20,5"
           style="fill:#000000;fill-opacity:1;stroke:#25f4fb;stroke-width:3.62115645;stroke-miterlimit:4;stroke-opacity:1;stroke-dasharray:none" />
        <g
           id="g3271">
          <path
             id="path3265"
             style="fill:#000000;fill-opacity:1;stroke:#25f4fb;stroke-width:3.62115645;stroke-miterlimit:4;stroke-opacity:1;stroke-dasharray:none"
             d="m 179.40019,502.93352 c 5,-6 10,-9 15,-10 2.5,-0.5 6,-1 10,-1 4,0 5,0 10,1 5,1 8,3 10,5 2,2 4,5 5,10 l 0,50 -30,0 0,-30 c 4.2e-4,-1.99975 -1,-4 -5,-5 -5,0 -11,0 -15,10 l 0,25 -30.70498,0 0,-100 30.70498,0 0,45"
             inkscape:connector-curvature="0"
             sodipodi:nodetypes="ccsccccccccccccc" />
        </g>
        <path
           sodipodi:nodetypes="cccsccccccccccccccccsc"
           inkscape:connector-curvature="0"
           id="path3006-1-5"
           d="m 366.40017,510.93352 c -10,1 -10.56804,2.06584 -17,4 l 0,17 20,0 c 3.83994,0 6.99994,-3.13152 7,-7 l 0,-8 c -6e-5,-1.4506 -1.04006,-3.03283 -2,-4 -0.96006,-0.96705 -2.56006,-1.99994 -4,-2 l -4,0 m -17,42 0,25 -30,0 2e-5,-85 29.99998,0 0,5 c 3,-2 10.49939,-4.79976 20,-5 10.34208,-0.41354 22.24632,-0.65371 29,6.04444 3.93591,3.96523 5.99991,7.37928 6,13.95556 l 0,14.32592 c -9e-5,7.25335 -0.87209,16.51551 -5,20.67408 -4.03208,4.06188 -12.80007,5 -20,5 l -30,0"
           style="fill:#000000;fill-opacity:1;stroke:#25f4fb;stroke-width:3.62115645;stroke-miterlimit:4;stroke-opacity:1;stroke-dasharray:none" />
        <path
           sodipodi:nodetypes="cscccccccccccccccccc"
           inkscape:connector-curvature="0"
           id="path3008-0-3"
           d="m 449.74827,508.9458 c -3.56541,6e-5 -5.34808,1.78275 -5.34808,5.34808 l 0,3.63967 15,0 0,-3.63967 c -4e-5,-3.56533 -1.78274,-5.34802 -5.34808,-5.34808 l -4.30384,0 m 39.65192,53.98775 c -17.47142,0.0383 -46.00589,0 -60,0 -10,0 -20,-10 -20,-20 l 0,-35.00003 c 0,-10 10,-15 20,-15 l 40,0 c 10,0 20,10 20,20 l 0,20 -45,3e-5 c 0.32568,2.65627 -0.0221,6.68178 1.65745,8.66298 0.89132,0.89136 2.0055,1.33704 3.34255,1.33702 8.8243,2e-5 23.29566,0.3524 40.32043,0.3564 l -0.32043,19.6436"
           style="opacity:0.98999999;fill:#000000;fill-opacity:1;stroke:#25f4fb;stroke-width:3.62115645;stroke-miterlimit:4;stroke-opacity:1;stroke-dasharray:none" />
      </g>
      <path
         inkscape:connector-curvature="0"
         d="m 341.92586,427.50219 -287.000053,0 -11,0 0,30 11,0 292.000053,0 c 1.4833,0.0281 3.0439,0.1177 4,1 0.9561,0.88229 1.0158,2.41809 1,4 l 0,84.99997 c 0,1 0,3.00004 -1,4.00004 -1,1 -3,1 -4,1 l -145.00005,0 -158.247842,0.43804 c -1,0 -3.963688,-0.40065 -4.963688,-1.52565 -1,-1.125 -1.350433,-3.50004 -1.350433,-4.00004 l 0,-7.5 0.08761,-5.58761 -30.525648,0.17522 0,8 0,25.00004 c 3.3e-4,3.3378 2.63978,7.6398 5,10 2.36022,2.3602 6.66215,4.9997 10,5 l 180.000001,0 160.00005,0 c 3.3378,-3e-4 7.6398,-2.6398 10,-5 2.3602,-2.3602 4.9997,-6.6622 5,-10 l 0,-125.00001 c -3e-4,-3.34307 -2.6332,-7.63899 -5,-10 -2.3668,-2.36101 -6.6569,-5.00786 -10,-5 z"
         style="font-size:medium;font-style:normal;font-variant:normal;font-weight:normal;font-stretch:normal;text-indent:0;text-align:start;text-decoration:none;line-height:normal;letter-spacing:normal;word-spacing:normal;text-transform:none;direction:ltr;block-progression:tb;writing-mode:lr-tb;text-anchor:start;baseline-shift:baseline;color:#000000;fill:#000000;fill-opacity:1;stroke:#13dfe6;stroke-width:3.5999999;stroke-miterlimit:4;stroke-opacity:1;stroke-dasharray:none;marker:none;visibility:visible;display:inline;overflow:visible;enable-background:accumulate;font-family:Sans;-inkscape-font-specification:Sans"
         id="path3269" />
    </g>
  </g>
</svg>
