<?xml version="1.0" encoding="UTF-8" standalone="no"?>
<!-- Created with Inkscape (http://www.inkscape.org/) -->

<svg
   xmlns:osb="http://www.openswatchbook.org/uri/2009/osb"
   xmlns:dc="http://purl.org/dc/elements/1.1/"
   xmlns:cc="http://creativecommons.org/ns#"
   xmlns:rdf="http://www.w3.org/1999/02/22-rdf-syntax-ns#"
   xmlns:svg="http://www.w3.org/2000/svg"
   xmlns="http://www.w3.org/2000/svg"
   xmlns:sodipodi="http://sodipodi.sourceforge.net/DTD/sodipodi-0.dtd"
   xmlns:inkscape="http://www.inkscape.org/namespaces/inkscape"
   width="164.2"
   height="74.655022"
   id="svg2"
   version="1.1"
   inkscape:version="0.48.2 r9819"
   sodipodi:docname="hype_logos.svg">
  <defs
     id="defs4">
    <linearGradient
       id="linearGradient4124"
       osb:paint="solid">
      <stop
         style="stop-color:#25f4fb;stop-opacity:1;"
         offset="0"
         id="stop4126" />
    </linearGradient>
    <linearGradient
       id="linearGradient3921"
       osb:paint="solid">
      <stop
         style="stop-color:#13dfe6;stop-opacity:1;"
         offset="0"
         id="stop3923" />
    </linearGradient>
  </defs>
  <sodipodi:namedview
     id="base"
     pagecolor="#ffffff"
     bordercolor="#666666"
     borderopacity="1.0"
     inkscape:pageopacity="0.0"
     inkscape:pageshadow="2"
     inkscape:zoom="5.2679662"
     inkscape:cx="82.181554"
     inkscape:cy="22.615952"
     inkscape:document-units="px"
     inkscape:current-layer="layer1"
     showgrid="false"
     inkscape:snap-global="false"
     inkscape:snap-to-guides="false"
     inkscape:snap-grids="true"
     inkscape:snap-bbox="true"
     inkscape:bbox-nodes="false"
     showguides="false"
     inkscape:guide-bbox="true"
     inkscape:window-width="1366"
     inkscape:window-height="720"
     inkscape:window-x="4"
     inkscape:window-y="0"
     inkscape:window-maximized="0"
     inkscape:snap-nodes="true"
     fit-margin-top="0"
     fit-margin-left="0"
     fit-margin-right="0"
     fit-margin-bottom="0"
     showborder="true"
     borderlayer="true"
     objecttolerance="10"
     guidetolerance="10">
    <inkscape:grid
       type="xygrid"
       id="grid3010"
       empspacing="5"
       visible="true"
       enabled="true"
       snapvisiblegridlinesonly="true" />
    <sodipodi:guide
       orientation="1,0"
       position="139.58446,157.55459"
       id="guide3012" />
  </sodipodi:namedview>
  <metadata
     id="metadata7">
    <rdf:RDF>
      <cc:Work
         rdf:about="">
        <dc:format>image/svg+xml</dc:format>
        <dc:type
           rdf:resource="http://purl.org/dc/dcmitype/StillImage" />
        <dc:title />
      </cc:Work>
    </rdf:RDF>
  </metadata>
  <g
     inkscape:label="Layer 1"
     inkscape:groupmode="layer"
     id="layer1"
     transform="translate(-9.8714701,-504.05415)">
    <g
       id="g3261"
       transform="matrix(0.43950741,0,0,0.43950741,7.618639,318.95489)">
      <g
         transform="matrix(0.99415752,0,0,0.99415752,-140.60735,-27.405143)"
         id="flowRoot2993-4-4"
         style="font-size:144px;font-style:normal;font-variant:normal;font-weight:normal;font-stretch:normal;text-align:start;line-height:94.99999881%;letter-spacing:-2.69000006px;word-spacing:0px;writing-mode:lr-tb;text-anchor:start;fill:#000000;fill-opacity:1;stroke:#25f4fb;stroke-width:3.62115645;stroke-miterlimit:4;stroke-opacity:1;stroke-dasharray:none;font-family:Russo One;-inkscape-font-specification:Russo One">
        <path
           sodipodi:nodetypes="cccsccccccccscc"
           inkscape:connector-curvature="0"
           id="path3004-5-0"
           d="m 249.40019,577.93352 c -4.20992,0.1756 -6.90554,-0.0938 -15,0 l 0,-25 10,0 c 3.636,0 5,-1 6,-3 1,-2 0.53597,-4.35199 -1,-8 l -20,-49 30,0 10,30 15,-30 30,0 -25,57 c -1.39203,3.79199 -4.78011,8.97097 -6.78011,11.97097 -2,3 -8.21989,9.02903 -13.21989,11.02903 -5,3 -15,5 -20,5"
           style="fill:#000000;fill-opacity:1;stroke:#25f4fb;stroke-width:3.62115645;stroke-miterlimit:4;stroke-opacity:1;stroke-dasharray:none" />
        <g
           id="g3271">
          <path
             id="path3265"
             style="fill:#000000;fill-opacity:1;stroke:#25f4fb;stroke-width:3.62115645;stroke-miterlimit:4;stroke-opacity:1;stroke-dasharray:none"
             d="m 179.40019,502.93352 c 5,-6 10,-9 15,-10 2.5,-0.5 6,-1 10,-1 4,0 5,0 10,1 5,1 8,3 10,5 2,2 4,5 5,10 l 0,50 -30,0 0,-30 c 4.2e-4,-1.99975 -1,-4 -5,-5 -5,0 -11,0 -15,10 l 0,25 -30.70498,0 0,-104.57729 30.70498,0 0,49.57729"
             inkscape:connector-curvature="0"
             sodipodi:nodetypes="ccsccccccccccccc" />
        </g>
        <path
           sodipodi:nodetypes="cccsccccccccccccccccsc"
           inkscape:connector-curvature="0"
           id="path3006-1-5"
           d="m 366.40017,510.93352 c -10,1 -10.56804,2.06584 -17,4 l 0,17 20,0 c 3.83994,0 6.99994,-3.13152 7,-7 l 0,-8 c -6e-5,-1.4506 -1.04006,-3.03283 -2,-4 -0.96006,-0.96705 -2.56006,-1.99994 -4,-2 l -4,0 m -17,42 0,25 -30,0 2e-5,-85 29.99998,0 0,5 c 3,-2 10.49939,-4.79976 20,-5 10.34208,-0.41354 22.24632,-0.65371 29,6.04444 3.93591,3.96523 5.99991,7.37928 6,13.95556 l 0,14.32592 c -9e-5,7.25335 -0.87209,16.51551 -5,20.67408 -4.03208,4.06188 -12.80007,5 -20,5 l -30,0"
           style="fill:#000000;fill-opacity:1;stroke:#25f4fb;stroke-width:3.62115645;stroke-miterlimit:4;stroke-opacity:1;stroke-dasharray:none" />
        <path
           sodipodi:nodetypes="cscccccccccccccccccc"
           inkscape:connector-curvature="0"
           id="path3008-0-3"
           d="m 449.74827,508.9458 c -3.56541,6e-5 -5.34808,1.78275 -5.34808,5.34808 l 0,3.63967 15,0 0,-3.63967 c -4e-5,-3.56533 -1.78274,-5.34802 -5.34808,-5.34808 l -4.30384,0 m 39.65192,53.98775 c -17.47142,0.0383 -46.00589,0 -60,0 -10,0 -20,-10 -20,-20 l 0,-35.00003 c 0,-10 10,-15 20,-15 l 40,0 c 10,0 20,10 20,20 l 0,20 -45,3e-5 c 0.32568,2.65627 -0.0221,6.68178 1.65745,8.66298 0.89132,0.89136 2.0055,1.33704 3.34255,1.33702 8.8243,2e-5 23.29566,0.3524 40.32043,0.3564 l -0.32043,19.6436"
           style="opacity:0.98999999;fill:#000000;fill-opacity:1;stroke:#25f4fb;stroke-width:3.62115645;stroke-miterlimit:4;stroke-opacity:1;stroke-dasharray:none" />
      </g>
      <path
         inkscape:connector-curvature="0"
         d="m 341.92586,422.95164 -287.000053,0 -11,0 0,30 11,0 292.000053,0 c 1.4833,0.0281 3.0439,0.1177 4,1 0.9561,0.88229 1.0158,2.41809 1,4 l 0,94.10107 c 0,1 0,3.00004 -1,4.00004 -1,1 -3.00049,1.03137 -4,1 l -145.00005,0 -158.247842,0.43804 c -1,0 -3.963688,-0.40065 -4.963688,-1.52565 -1,-1.125 -1.350433,-3.50004 -1.350433,-4.00004 l 0,-12.05055 0.08761,-5.58761 -30.525648,0.17522 0,8 0,29.55059 c 3.3e-4,3.3378 2.63978,9.79934 5,12.15954 2.36022,2.3602 6.66215,4.9997 10,5 l 180.000001,0 160.00005,0 c 3.3378,-3e-4 7.6398,-2.6398 10,-5 2.3602,-2.3602 4.9997,-8.82174 5,-12.15954 l 0,-134.10111 c -3e-4,-3.34307 -2.6332,-7.63899 -5,-10 -2.3668,-2.36101 -6.6569,-5.00786 -10,-5 z"
         style="font-size:medium;font-style:normal;font-variant:normal;font-weight:normal;font-stretch:normal;text-indent:0;text-align:start;text-decoration:none;line-height:normal;letter-spacing:normal;word-spacing:normal;text-transform:none;direction:ltr;block-progression:tb;writing-mode:lr-tb;text-anchor:start;baseline-shift:baseline;color:#000000;fill:#000000;fill-opacity:1;stroke:#13dfe6;stroke-width:3.5999999;stroke-miterlimit:4;stroke-opacity:1;stroke-dasharray:none;marker:none;visibility:visible;display:inline;overflow:visible;enable-background:accumulate;font-family:Sans;-inkscape-font-specification:Sans"
         id="path3269"
         sodipodi:nodetypes="ccccccscsssccsscccccscccsccscc" />
    </g>
    <g
       transform="matrix(0.96930783,0,0,1.031664,0,0.56947974)"
       style="font-size:10.66238594px;font-style:normal;font-variant:normal;font-weight:normal;font-stretch:normal;text-align:start;line-height:125%;letter-spacing:0px;word-spacing:0px;writing-mode:lr-tb;text-anchor:start;fill:#00eff8;fill-opacity:1;stroke:none;font-family:Russo One;-inkscape-font-specification:Russo One"
       id="text3768">
      <path
         d="m 26.087087,548.35774 4.478202,0 c 0.746361,10e-6 1.286588,0.17061 1.620683,0.5118 0.341189,0.33409 0.511787,0.87432 0.511794,1.62068 l 0,1.06624 c -7e-6,0.74637 -0.170605,1.29015 -0.511794,1.63134 -0.334095,0.33409 -0.874322,0.50114 -1.620683,0.50113 l -2.558973,0 0,2.13248 -1.919229,0 0,-7.46367 m 4.69145,2.13248 c -6e-6,-0.42649 -0.213253,-0.63974 -0.639743,-0.63974 l -2.132478,0 0,2.34572 2.132478,0 c 0.42649,0 0.639737,-0.21324 0.639743,-0.63974 l 0,-1.06624"
         id="path3773"
         inkscape:connector-curvature="0" />
      <path
         d="m 35.725717,551.39652 c -0.284333,10e-6 -0.426498,0.14217 -0.426495,0.4265 l 0,0.58643 1.812605,0 0,-0.58643 c -4e-6,-0.28433 -0.142169,-0.42649 -0.426495,-0.4265 l -0.959615,0 m 3.03878,4.31827 c -1.371898,0.14216 -2.615842,0.21324 -3.731835,0.21324 -0.483363,0 -0.870763,-0.14571 -1.1622,-0.43715 -0.291439,-0.29144 -0.437158,-0.67884 -0.437158,-1.1622 l 0,-2.55898 c 0,-0.53311 0.149273,-0.94894 0.44782,-1.24749 0.305654,-0.30565 0.725041,-0.45848 1.258162,-0.45849 l 2.132477,0 c 0.533115,10e-6 0.948947,0.15284 1.247499,0.45849 0.30565,0.29855 0.458477,0.71438 0.458483,1.24749 l 0,1.97255 -3.678523,0 0,0.42649 c -3e-6,0.10663 0.03554,0.19548 0.106624,0.26656 0.07108,0.0711 0.159933,0.10663 0.266559,0.10662 0.703714,10e-6 1.734411,-0.0533 3.092092,-0.15993 l 0,1.3328"
         id="path3775"
         inkscape:connector-curvature="0" />
      <path
         d="m 43.164398,551.71639 c -0.447824,10e-6 -0.90986,0.10663 -1.386111,0.31987 l 0,3.78515 -1.865917,0 0,-5.65106 1.65267,0 0.106624,0.69305 c 0.611307,-0.53311 1.251049,-0.79967 1.919229,-0.79968 l 0.479807,0 0,1.65267 -0.906302,0"
         id="path3777"
         inkscape:connector-curvature="0" />
      <path
         d="m 49.411889,549.79716 c -0.206145,-0.0142 -0.479812,-0.0355 -0.821004,-0.064 -0.3412,-0.0284 -0.636193,-0.0426 -0.884978,-0.0426 -0.248792,10e-6 -0.408728,0.0355 -0.479807,0.10662 -0.07109,0.0711 -0.106627,0.15994 -0.106624,0.26656 l 0,0.53312 1.759293,0 0,1.43942 -1.759293,0 0,3.78515 -1.865918,0 0,-3.78515 -0.746367,0 0,-1.43942 0.746367,0 0,-0.74636 c -10e-7,-0.48336 0.145718,-0.87076 0.437158,-1.16221 0.291437,-0.29143 0.678836,-0.43715 1.1622,-0.43715 0.433601,0 0.892083,0.0142 1.375448,0.0426 0.483357,0.0284 0.877865,0.0498 1.183525,0.064 l 0,1.43942"
         id="path3779"
         inkscape:connector-curvature="0" />
      <path
         d="m 55.374496,554.22205 c -6e-6,0.53312 -0.152833,0.95251 -0.458482,1.25816 -0.298552,0.29855 -0.714385,0.44782 -1.247499,0.44782 l -2.452349,0 c -0.533121,0 -0.952508,-0.14927 -1.258162,-0.44782 -0.298547,-0.30565 -0.44782,-0.72504 -0.44782,-1.25816 l 0,-2.45235 c 0,-0.53311 0.149273,-0.94894 0.44782,-1.24749 0.305654,-0.30565 0.725041,-0.45848 1.258162,-0.45849 l 2.452349,0 c 0.533114,10e-6 0.948947,0.15284 1.247499,0.45849 0.305649,0.29855 0.458476,0.71438 0.458482,1.24749 l 0,2.45235 m -1.865917,-2.29241 c -5e-6,-0.28433 -0.14217,-0.42649 -0.426496,-0.4265 l -1.279486,0 c -0.284333,10e-6 -0.426498,0.14217 -0.426495,0.4265 l 0,2.13248 c -3e-6,0.28433 0.142162,0.42649 0.426495,0.42649 l 1.279486,0 c 0.284326,0 0.426491,-0.14216 0.426496,-0.42649 l 0,-2.13248"
         id="path3781"
         inkscape:connector-curvature="0" />
      <path
         d="m 59.574477,551.71639 c -0.447824,10e-6 -0.90986,0.10663 -1.386111,0.31987 l 0,3.78515 -1.865917,0 0,-5.65106 1.65267,0 0.106624,0.69305 c 0.611307,-0.53311 1.251049,-0.79967 1.919229,-0.79968 l 0.479807,0 0,1.65267 -0.906302,0"
         id="path3783"
         inkscape:connector-curvature="0" />
      <path
         d="m 65.02229,550.06372 c 0.575764,10e-6 1.020029,0.21326 1.332798,0.63975 0.326974,-0.22035 0.678832,-0.38029 1.055576,-0.47981 0.383839,-0.10662 0.725035,-0.15993 1.023589,-0.15994 l 0.106624,0 c 0.483353,10e-6 0.870753,0.14573 1.1622,0.43716 0.291429,0.29144 0.437148,0.67884 0.437158,1.1622 l 0,4.15833 -1.865918,0 0,-3.83846 c -7e-6,-0.10662 -0.03555,-0.19547 -0.106623,-0.26656 -0.07109,-0.0711 -0.159944,-0.10662 -0.26656,-0.10662 l -0.05331,0 c -0.319878,0 -0.728603,0.0711 -1.226174,0.21325 l 0,3.99839 -1.865918,0 0,-3.83846 c -4e-6,-0.10662 -0.03554,-0.19547 -0.106624,-0.26656 -0.07109,-0.0711 -0.159939,-0.10662 -0.266559,-0.10662 l -0.05331,0 c -0.319875,0 -0.7286,0.0711 -1.226175,0.21325 l 0,3.99839 -1.865917,0 0,-5.65106 1.652669,0 0.106624,0.53312 c 0.334086,-0.22035 0.675282,-0.38029 1.023589,-0.47981 0.35541,-0.10662 0.653956,-0.15993 0.895641,-0.15994 l 0.106624,0"
         id="path3785"
         inkscape:connector-curvature="0" />
      <path
         d="m 73.453904,550.38359 0,5.43782 -1.865917,0 0,-3.99839 -0.799679,0 0,-1.43943 2.665596,0 m -1.865917,-2.13247 1.865917,0 0,1.49273 -1.865917,0 0,-1.49273"
         id="path3787"
         inkscape:connector-curvature="0" />
      <path
         d="m 77.668878,551.60977 c -0.376741,0 -0.803236,0.0711 -1.279487,0.21325 l 0,3.99839 -1.865917,0 0,-5.65106 1.65267,0 0.106624,0.53312 c 0.334085,-0.22035 0.675281,-0.38029 1.023589,-0.47981 0.355409,-0.10662 0.653955,-0.15993 0.89564,-0.15994 l 0.479807,0 c 0.483357,10e-6 0.870756,0.14573 1.1622,0.43716 0.291433,0.29144 0.437152,0.67884 0.437158,1.1622 l 0,4.15833 -1.865917,0 0,-3.83846 c -5e-6,-0.10662 -0.03555,-0.19547 -0.106624,-0.26656 -0.07109,-0.0711 -0.15994,-0.10662 -0.26656,-0.10662 l -0.373183,0"
         id="path3789"
         inkscape:connector-curvature="0" />
      <path
         d="m 84.928464,555.39492 c -0.689504,0.14216 -1.293706,0.21324 -1.812605,0.21324 l -0.373184,0 c -0.483363,0 -0.870763,-0.14572 -1.1622,-0.43715 -0.291439,-0.29144 -0.437158,-0.67884 -0.437158,-1.1622 l 0,-2.13248 c 0,-0.53312 0.149273,-0.94895 0.44782,-1.2475 0.305654,-0.30565 0.725041,-0.45848 1.258162,-0.45848 l 3.945083,0 0,5.97093 c -6e-6,0.48336 -0.145726,0.87076 -0.437158,1.1622 -0.291444,0.29144 -0.678844,0.43716 -1.1622,0.43716 -1.116,0 -2.359944,-0.0711 -3.731835,-0.21325 l 0,-1.38611 c 1.357675,0.10663 2.388371,0.15994 3.092092,0.15994 0.10662,0 0.195473,-0.0355 0.266559,-0.10663 0.07108,-0.0711 0.10662,-0.15993 0.106624,-0.26656 l 0,-0.53311 m -1.279486,-1.22618 c 0.447817,0 0.874312,-0.0355 1.279486,-0.10662 l 0,-2.45235 -1.492734,0 c -0.284333,0 -0.426498,0.14217 -0.426495,0.42649 l 0,1.7593 c -3e-6,0.10662 0.03554,0.19548 0.106624,0.26656 0.07108,0.0711 0.159933,0.10662 0.266559,0.10662 l 0.26656,0"
         id="path3791"
         inkscape:connector-curvature="0" />
      <path
         d="m 92.497926,555.82141 -2.079165,0 2.825532,-7.46367 2.132478,0 2.825532,7.46367 -2.079165,0 -0.479808,-1.3328 -2.665596,0 -0.479808,1.3328 m 0.959615,-2.71891 1.705982,0 -0.852991,-2.50566 -0.852991,2.50566"
         id="path3793"
         inkscape:connector-curvature="0" />
      <path
         d="m 101.89082,551.71639 c -0.44783,10e-6 -0.90986,0.10663 -1.38611,0.31987 l 0,3.78515 -1.865922,0 0,-5.65106 1.652672,0 0.10662,0.69305 c 0.61131,-0.53311 1.25105,-0.79967 1.91923,-0.79968 l 0.47981,0 0,1.65267 -0.9063,0"
         id="path3795"
         inkscape:connector-curvature="0" />
      <path
         d="m 107.49857,555.82141 c -0.68951,0.0711 -1.36479,0.10662 -2.02586,0.10662 -0.48336,0 -0.87076,-0.14571 -1.1622,-0.43715 -0.29144,-0.29144 -0.43716,-0.67884 -0.43715,-1.1622 l 0,-2.71891 -0.63975,0 0,-1.43942 0.63975,0 0.21324,-1.27949 1.65267,0 0,1.27949 1.3328,0 0,1.43942 -1.3328,0 0,2.45235 c 0,0.10662 0.0355,0.19548 0.10663,0.26656 0.0711,0.0711 0.15993,0.10662 0.26656,0.10662 l 1.38611,0 0,1.38611"
         id="path3797"
         inkscape:connector-curvature="0" />
      <path
         d="m 108.02586,554.32868 c 1.44297,0.10662 2.58029,0.15993 3.41196,0.15993 0.10662,0 0.19548,-0.0355 0.26656,-0.10662 0.0711,-0.0711 0.10662,-0.15994 0.10663,-0.26656 l 0,-0.37318 -2.29242,0 c -0.48336,0 -0.87076,-0.14572 -1.1622,-0.43716 -0.29144,-0.29144 -0.43715,-0.67884 -0.43715,-1.1622 l 0,-0.37319 c 0,-0.48335 0.14571,-0.87075 0.43715,-1.1622 0.29144,-0.29143 0.67884,-0.43715 1.1622,-0.43715 l 3.62521,0 0,1.38611 -2.98546,0 c -0.10663,0 -0.19548,0.0355 -0.26656,0.10662 -0.0711,0.0711 -0.10663,0.15994 -0.10663,0.26656 0,0.10663 0.0355,0.19548 0.10663,0.26656 0.0711,0.0711 0.15993,0.10663 0.26656,0.10662 l 1.91923,0 c 0.48335,10e-6 0.87075,0.14573 1.1622,0.43716 0.29143,0.29144 0.43715,0.67884 0.43715,1.1622 l 0,0.4265 c 0,0.48336 -0.14572,0.87076 -0.43715,1.1622 -0.29145,0.29144 -0.67885,0.43715 -1.1622,0.43715 -1.25817,0 -2.60874,-0.0711 -4.05171,-0.21324 l 0,-1.38611"
         id="path3799"
         inkscape:connector-curvature="0" />
      <path
         d="m 119.07059,555.82141 -2.07917,0 2.82554,-7.46367 2.13247,0 2.82554,7.46367 -2.07917,0 -0.47981,-1.3328 -2.66559,0 -0.47981,1.3328 m 0.95961,-2.71891 1.70599,0 -0.853,-2.50566 -0.85299,2.50566"
         id="path3801"
         inkscape:connector-curvature="0" />
      <path
         d="m 130.22278,555.71479 c -1.32925,0.14216 -2.50211,0.21324 -3.51859,0.21324 -0.48336,0 -0.87076,-0.14571 -1.1622,-0.43715 -0.29144,-0.29144 -0.43716,-0.67884 -0.43716,-1.1622 l 0,-2.45235 c 0,-0.53312 0.14928,-0.94895 0.44782,-1.2475 0.30566,-0.30565 0.72505,-0.45848 1.25817,-0.45848 l 3.41196,0 0,1.43942 -2.82553,0 c -0.28434,0 -0.4265,0.14217 -0.4265,0.42649 l 0,2.07917 c 0,0.10662 0.0355,0.19548 0.10663,0.26656 0.0711,0.0711 0.15993,0.10662 0.26656,0.10662 0.63974,0 1.59935,-0.0533 2.87884,-0.15993 l 0,1.38611"
         id="path3803"
         inkscape:connector-curvature="0" />
      <path
         d="m 133.30237,554.4353 c 0.37674,0 0.80323,-0.0711 1.27949,-0.21325 l 0,-0.63974 -1.54605,0 c -0.10662,0 -0.19548,0.0355 -0.26656,0.10662 -0.0711,0.0711 -0.10662,0.15994 -0.10662,0.26656 l 0,0.10663 c 0,0.10662 0.0355,0.19548 0.10662,0.26656 0.0711,0.0711 0.15994,0.10662 0.26656,0.10662 l 0.26656,0 m -1.97254,-4.15833 c 1.30081,-0.14216 2.47367,-0.21324 3.51859,-0.21325 0.48336,10e-6 0.87076,0.14573 1.1622,0.43716 0.29143,0.29144 0.43715,0.67884 0.43716,1.1622 l 0,4.15833 -1.65267,0 -0.10663,-0.53312 c -0.33409,0.22036 -0.67884,0.38385 -1.03425,0.49047 -0.34831,0.0995 -0.6433,0.14927 -0.88498,0.14927 l -0.37318,0 c -0.48336,0 -0.87076,-0.14571 -1.1622,-0.43715 -0.29144,-0.29144 -0.43716,-0.67884 -0.43716,-1.1622 l 0,-0.47981 c 0,-0.48336 0.14572,-0.87076 0.43716,-1.1622 0.29144,-0.29144 0.67884,-0.43715 1.1622,-0.43716 l 2.18579,0 0,-0.42649 c 0,-0.10662 -0.0356,-0.19548 -0.10662,-0.26656 -0.0711,-0.0711 -0.15994,-0.10662 -0.26656,-0.10663 -0.46204,10e-6 -0.97384,0.0213 -1.53539,0.064 -0.55444,0.0426 -1.00226,0.0746 -1.34346,0.096 l 0,-1.3328"
         id="path3805"
         inkscape:connector-curvature="0" />
      <path
         d="m 141.41328,555.82141 -0.10662,-0.53312 c -0.33409,0.22036 -0.67884,0.38385 -1.03425,0.49047 -0.34831,0.0995 -0.6433,0.14927 -0.88498,0.14927 l -0.47981,0 c -0.48336,0 -0.87076,-0.14571 -1.1622,-0.43715 -0.29144,-0.29144 -0.43716,-0.67884 -0.43716,-1.1622 l 0,-2.45235 c 0,-0.53312 0.14928,-0.94895 0.44782,-1.2475 0.30566,-0.30565 0.72505,-0.45848 1.25817,-0.45848 l 2.18579,0 0,-1.81261 1.86591,0 0,7.46367 -1.65267,0 m -1.49273,-1.43942 c 0.37673,0 0.80323,-0.0711 1.27949,-0.21325 l 0,-2.55897 -1.59936,0 c -0.28434,0 -0.4265,0.14217 -0.4265,0.42649 l 0,1.97255 c 0,0.10662 0.0355,0.19547 0.10663,0.26656 0.0711,0.0711 0.15993,0.10662 0.26656,0.10662 l 0.37318,0"
         id="path3807"
         inkscape:connector-curvature="0" />
      <path
         d="m 146.30632,551.39652 c -0.28433,10e-6 -0.4265,0.14217 -0.4265,0.4265 l 0,0.58643 1.81261,0 0,-0.58643 c 0,-0.28433 -0.14217,-0.42649 -0.42649,-0.4265 l -0.95962,0 m 3.03878,4.31827 c -1.3719,0.14216 -2.61584,0.21324 -3.73183,0.21324 -0.48337,0 -0.87077,-0.14571 -1.1622,-0.43715 -0.29144,-0.29144 -0.43716,-0.67884 -0.43716,-1.1622 l 0,-2.55898 c 0,-0.53311 0.14927,-0.94894 0.44782,-1.24749 0.30565,-0.30565 0.72504,-0.45848 1.25816,-0.45849 l 2.13248,0 c 0.53311,10e-6 0.94894,0.15284 1.2475,0.45849 0.30564,0.29855 0.45847,0.71438 0.45848,1.24749 l 0,1.97255 -3.67853,0 0,0.42649 c 0,0.10663 0.0355,0.19548 0.10663,0.26656 0.0711,0.0711 0.15993,0.10663 0.26656,0.10662 0.70371,10e-6 1.73441,-0.0533 3.09209,-0.15993 l 0,1.3328"
         id="path3809"
         inkscape:connector-curvature="0" />
      <path
         d="m 154.27812,550.06372 c 0.57577,10e-6 1.02003,0.21326 1.3328,0.63975 0.32697,-0.22035 0.67883,-0.38029 1.05558,-0.47981 0.38384,-0.10662 0.72503,-0.15993 1.02359,-0.15994 l 0.10662,0 c 0.48335,10e-6 0.87075,0.14573 1.1622,0.43716 0.29143,0.29144 0.43715,0.67884 0.43716,1.1622 l 0,4.15833 -1.86592,0 0,-3.83846 c -1e-5,-0.10662 -0.0356,-0.19547 -0.10662,-0.26656 -0.0711,-0.0711 -0.15995,-0.10662 -0.26656,-0.10662 l -0.0533,0 c -0.31987,0 -0.7286,0.0711 -1.22617,0.21325 l 0,3.99839 -1.86592,0 0,-3.83846 c 0,-0.10662 -0.0355,-0.19547 -0.10662,-0.26656 -0.0711,-0.0711 -0.15994,-0.10662 -0.26656,-0.10662 l -0.0533,0 c -0.31988,0 -0.7286,0.0711 -1.22618,0.21325 l 0,3.99839 -1.86591,0 0,-5.65106 1.65267,0 0.10662,0.53312 c 0.33408,-0.22035 0.67528,-0.38029 1.02359,-0.47981 0.35541,-0.10662 0.65395,-0.15993 0.89564,-0.15994 l 0.10662,0"
         id="path3811"
         inkscape:connector-curvature="0" />
      <path
         d="m 161.85674,557.74064 c -0.37674,0 -0.83877,-0.0355 -1.38611,-0.10662 l 0,-1.38611 0.95962,0 c 0.27011,0 0.44426,-0.0746 0.52245,-0.22391 0.0853,-0.14928 0.0711,-0.35897 -0.0426,-0.62908 l -2.18579,-5.22457 1.97255,0 1.33279,3.62521 1.11956,-3.62521 1.97254,0 -2.13248,5.86431 c -0.20614,0.56155 -0.4727,0.98449 -0.79968,1.26882 -0.32698,0.29144 -0.77125,0.43716 -1.3328,0.43716"
         id="path3813"
         inkscape:connector-curvature="0" />
    </g>
  </g>
</svg>
